<?xml version="1.0" encoding="utf-8"?>
<!-- Generator: Adobe Illustrator 20.1.0, SVG Export Plug-In . SVG Version: 6.00 Build 0)  -->
<svg version="1.1" id="Layer_1" xmlns="http://www.w3.org/2000/svg" xmlns:xlink="http://www.w3.org/1999/xlink" x="0px" y="0px"
	 viewBox="0 0 129 69.3" style="enable-background:new 0 0 129 69.3;" xml:space="preserve">
<style type="text/css">
	.st0{fill:#D0D778;stroke:#000000;stroke-width:0.2835;stroke-miterlimit:10;}
	.st1{fill:#FBF1C5;stroke:#000000;stroke-width:0.2835;stroke-miterlimit:10;}
	.st2{fill:#F3F1EB;stroke:#000000;stroke-width:0.2835;stroke-miterlimit:10;}
	.st3{fill:#FBF1C5;}
	.st4{fill:#F3F1EB;}
</style>
<path class="st0" d="M7,53.3c-1.3,0.1-3.5,0.3-6.2,0.6c0-11.5,0-23,0-34.5c10.1-0.2,20,0.1,32.1,0.2c1.2,0.2,2.4,0.4,3.6,0.6
	c1.6,0.2,3.2,0.5,4.8,0.7c1.7,0,3.7,0,6,0c0.8,0,1.7,0,2.4,0.7c0.5,0.5,0.8,1.3,0.8,2.4c-0.1,8.8-0.4,17.5,0.2,26.3
	c-0.2,0.7-0.5,1.2-0.8,1.5c-0.9,0.8-2.1,0.8-3.2,0.7c-1.8-0.1-3.6,0.1-5.5,0C34.9,52.2,17.7,52.4,7,53.3z M34.3,50.7
	c1-0.2,1.9-0.8,2-1.9c0.1-1.1-0.7-1.9-1.8-1.9s-1.9,0.6-2,1.8C32.4,49.8,33,50.5,34.3,50.7z M44.2,48.1c0-0.8-0.4-1.4-1.3-1.5
	c-0.9,0-1.4,0.4-1.4,1.3c0,0.9,0.4,1.4,1.3,1.4C43.6,49.4,44.2,49,44.2,48.1z"/>
<path class="st1" d="M54,25.7C62.9,27,68.1,22.3,71.7,15c1.7-3.5,3.4-6.9,5.4-10.3c1.3-2.2,2.5-4.9,6-3.5c3.3,1.3,5,4.8,4,8.3
	c-0.9,3.2-2.7,5.9-4.5,8.6c-0.6,0.9-1.3,1.8-1.9,2.8s-0.9,2.1-0.1,3.2c0.7,0.9,1.8,0.7,2.8,0.4c5.5-1.4,10.5-3.9,15.7-6
	c4.7-1.9,9.4-4.2,14.5-4.8c1.9-0.2,4.3-0.9,5.3,1.6c1,2.4-0.2,4.4-2,6c-4.1,3.6-9.3,5.3-14.3,7.3c-2.9,1.1-5.9,2.2-8.8,3.3
	c-1.1,0.4-2.9,0.8-2.5,2.3c0.3,1.3,2,1.2,3.3,1.2c5.2-0.3,10.5-0.6,15.7-1.1c4.4-0.4,8.7-0.6,13.1-0.2c1.9,0.1,4.3,0.3,4.6,3
	c0.2,2.5-1.7,3.8-3.7,4.6c-2.6,1-5.3,1.2-8.1,1.3c-7.3,0.2-14.5-0.4-21.7-0.8c-1.5-0.1-3.8-0.9-4.3,1.1c-0.5,2.1,2.1,2.5,3.6,3.2
	c4.9,2.3,10.3,3.1,15.4,4.8c2.7,0.9,5.5,1.6,8,3.2c1.2,0.8,2.7,1.7,2.3,3.5c-0.5,1.9-2,2.8-3.9,3c-3.7,0.4-7.2-0.5-10.6-1.8
	c-5.4-2-10.7-4.1-16.1-6.1c-2-0.7-4.1-1.7-6.7-1c0.8,2,2.6,2.6,3.9,3.6c3.3,2.4,7.1,4.3,9.9,7.3c2.3,2.4,1.5,4.7-1.8,5.3
	c-2.3,0.4-4.5,0.2-6.5-1.1c-2.4-1.6-4.9-3.1-7-5c-7.5-6.8-15.9-12.1-25.9-14.3c-1-1.9-1.9-3.7-1.1-6C55.5,36.5,55,31.1,54,25.7z"/>
<path class="st2" d="M54,25.7c1,5.4,1.5,10.9-0.3,16.2c-0.8,2.3,0,4.1,1.1,6c-1.1,1.1-2.6,1.8-4,2.3c-0.6-8.8-0.3-17.5-0.2-26.3
	c0.9,0.1,1.8,0.2,2.7,0.2c0.2,0.4,0.4,0.9,0.6,1.3L54,25.7z"/>
<path class="st3" d="M53.8,25.4c-0.2-0.4-0.4-0.9-0.6-1.3C53.8,24.4,53.9,24.9,53.8,25.4z"/>
<path class="st3" d="M34.3,50.7c-1.2-0.1-1.8-0.9-1.8-2c0-1.2,0.9-1.9,2-1.8c1.1,0,1.9,0.8,1.8,1.9C36.2,49.8,35.3,50.5,34.3,50.7z"
	/>
<path class="st4" d="M44.2,48.1c0,0.9-0.6,1.3-1.5,1.3s-1.3-0.5-1.3-1.4s0.6-1.3,1.4-1.3C43.8,46.7,44.2,47.3,44.2,48.1z"/>
</svg>
