<?xml version="1.0" encoding="utf-8"?>
<!-- Generator: Adobe Illustrator 20.1.0, SVG Export Plug-In . SVG Version: 6.00 Build 0)  -->
<svg version="1.1" id="Layer_1" xmlns="http://www.w3.org/2000/svg" xmlns:xlink="http://www.w3.org/1999/xlink" x="0px" y="0px"
	 viewBox="0 0 121.5 51.6" style="enable-background:new 0 0 121.5 51.6;" xml:space="preserve">
<style type="text/css">
	.st0{fill:#8AB5CC;stroke:#000000;stroke-width:0.2835;stroke-miterlimit:10;}
	.st1{fill:#FBF1C5;stroke:#000000;stroke-width:0.2835;stroke-miterlimit:10;}
	.st2{fill:#F3F1EB;stroke:#000000;stroke-width:0.2835;stroke-miterlimit:10;}
	.st3{fill:#FBF1C5;}
	.st4{fill:#F3F1EB;}
</style>
<path class="st0" d="M0.8,8.9C20.4,9,40,9,59.5,9.1c1.7,0,3.6-0.2,4.7,1.6c0.1,10.1,0.2,20.1,0.4,30.2c0,0.8,0.4,1.7,0.6,2.5
	c-0.8,1.8-2.4,1.5-3.9,1.5c-4.5,0.1-9-0.2-13.4,0.2c-15.7,1.4-31.4,1.3-47.2,1.3C0.8,33.8,0.8,21.4,0.8,8.9z M49.7,40
	c-0.3-1.2-0.7-2.3-2.1-2.2c-1.5,0-2.2,1.1-2.1,2.5c0,1.4,1,2,2.2,1.9C49,42.2,49.5,41.3,49.7,40z M41,40.3C40.8,39,40.3,38,39,38
	c-1.5,0.1-2.1,1.2-2,2.6c0.1,1.2,0.9,2.2,2.2,2C40.5,42.5,41,41.5,41,40.3z M56,37.5c-1.1,0.2-1.9,0.9-1.9,2.2
	C54,41,54.5,42,55.8,42.2c1.5,0.1,2.2-0.9,2.3-2.3C58.3,38.5,57.5,37.7,56,37.5z"/>
<path class="st1" d="M67.4,11.3c4.7,1.4,9.1,1.1,13.1-1.9c8.7-6.6,19-7.9,29.3-8.6c5.1-0.3,7.8,3.5,6.5,8.3c-0.4,1.5,0,1.8,1.2,2.5
	c3.5,2,4.1,4.8,1.8,8c-1,1.4-1.2,2.2,0.2,3.7c2.3,2.4,0.8,5.1-1,7c-1.4,1.5-2.1,2.2-1,4.3c1.5,2.9,0.1,5.3-2.6,6.8
	c-1.5,0.8-2.5,1.4-2,3.6c0.6,2.8-2.5,5.5-6,5.9s-6.7-0.5-9.8-1.8c-4.4-1.8-8.9-3.4-12.9-5.9c-5-3.2-10.7-1.9-16.1-2.3
	c0-4.8,0.2-9.6,0-14.5C68.1,21.4,68.9,16.3,67.4,11.3z"/>
<path class="st2" d="M67.4,11.3c1.4,5,0.6,10.1,0.7,15.1c0.1,4.8,0,9.6,0,14.5L68,41c-0.1,0.3-0.3,0.6-0.4,0.9
	c-0.5,1-1.4,1.3-2.4,1.3c-0.2-0.8-0.6-1.7-0.6-2.5c-0.2-10-0.3-20-0.4-30.1C65.4,10.4,66.6,10.3,67.4,11.3z"/>
<path class="st3" d="M67.7,42c0.1-0.3,0.3-0.6,0.4-0.9C67.9,41.3,67.8,41.7,67.7,42z"/>
<path class="st4" d="M49.7,40c-0.1,1.3-0.7,2.2-2,2.2c-1.2,0.1-2.2-0.6-2.2-1.9c0-1.4,0.7-2.5,2.1-2.5C49,37.8,49.3,38.8,49.7,40z"
	/>
<path class="st4" d="M41,40.3c-0.1,1.3-0.6,2.3-1.9,2.4c-1.3,0.2-2.1-0.7-2.2-2c-0.1-1.4,0.5-2.5,2-2.6C40.3,38,40.8,39,41,40.3z"/>
<path class="st4" d="M56,37.5c1.5,0.1,2.2,0.9,2.1,2.2c-0.1,1.4-0.8,2.4-2.3,2.3C54.4,42,54,41,54.1,39.6C54.2,38.5,55,37.8,56,37.5
	z"/>
</svg>
