<?xml version="1.0" encoding="utf-8"?>
<!-- Generator: Adobe Illustrator 20.1.0, SVG Export Plug-In . SVG Version: 6.00 Build 0)  -->
<svg version="1.1" id="Layer_1" xmlns="http://www.w3.org/2000/svg" xmlns:xlink="http://www.w3.org/1999/xlink" x="0px" y="0px"
	 viewBox="0 0 128.5 47" style="enable-background:new 0 0 128.5 47;" xml:space="preserve">
<style type="text/css">
	.st0{fill:#FBC488;stroke:#000000;stroke-width:0.2835;stroke-miterlimit:10;}
	.st1{fill:#FBF1C5;stroke:#000000;stroke-width:0.2835;stroke-miterlimit:10;}
	.st2{fill:#F3F1EB;stroke:#000000;stroke-width:0.2835;stroke-miterlimit:10;}
	.st3{fill:#FBF1C5;}
</style>
<path class="st0" d="M0.7,4.4c10.6,0,21.1,0,31.7,0.1c4.6,0.1,9.1,0.6,13.7,0.6c2.3,0,2.7,2,4.2,2.7c-1.7,0.7-1.6,2-1.6,3.4
	c-0.2,7,0.3,14.1-0.6,21.1c-0.3,2.6,0.6,4.1,3.5,3.6c-4.9,4.7-11.3,2.9-16.9,3.5c-11.3,1.2-22.7,1.2-34,1.7
	C0.7,28.9,0.7,16.6,0.7,4.4z M33.7,11.8c1.3-0.2,2.4-1,2.4-2.3c0-1.2-1.1-1.9-2.3-1.9c-1.4,0-2.5,0.8-2.4,2.2
	C31.3,11,32.3,11.7,33.7,11.8z M42.7,9.3c-0.1-0.9-0.5-2-2-1.7c-1.4,0.2-2.2,1.2-2.2,2.5c-0.1,1.2,0.9,1.6,1.9,1.7
	C42,11.9,42.7,11.1,42.7,9.3z M28.7,9.7c-0.2-1.3-1-2-2.2-2.1c-1.3-0.1-1.8,0.7-1.8,1.8c-0.1,1.2,0.1,2.4,1.7,2.3
	C27.6,11.7,28.4,10.9,28.7,9.7z"/>
<path class="st1" d="M51.8,9.5c8.5,1.7,15.4-3.1,22.8-5.7c2.7-1,5.4-2,8.3-2.2c4.5-0.3,6.9,1.7,7.3,6.2c0.1,1.8,1.1,1.8,2.3,1.4
	c3-0.9,5.9-1.9,8.9-3c5.5-2,10.9-4.3,16.8-5.2c2.3-0.4,4.5-0.5,6.6,0.7c2.2,1.3,2.6,2.9,0.4,4.7c-1.6,1.2-3.4,2.1-5.3,2.7
	c-6.1,1.9-12.1,3.8-18.2,5.8c-1.7,0.5-3.3,1.1-4.9,1.9c-1.2,0.6-3.1,0.8-3,2.4s2,1.7,3.3,1.9c6.1,1,12.3,2,18.5,3
	c3.2,0.5,6.4,1.3,9.4,2.5c1.5,0.6,2.8,1.4,2.7,3.2c-0.1,1.9-1.4,2.8-3.1,3.3c-4.1,1.3-8.2,0.2-12.2-0.7c-3.9-0.9-7.7-2.1-11.5-3.2
	c-1.3-0.3-2.5-1.1-4.1-0.5c1.6,3.7,0.8,6.6-2.8,8.5c-1.1,0.6-1.2,1.2-1.1,2.3c0.3,4.2-2.8,7.2-7,6.6c-9.2-1.3-18.3-2.9-25.7-9.2
	c-2.4-2-5.3-1.9-8.2-1.7C51.7,26.6,51.8,18,51.8,9.5z"/>
<path class="st2" d="M51.8,9.5c0,8.5-0.1,17.1-0.1,25.6c0,0.3-0.1,0.6-0.1,0.8c-2.9,0.5-3.8-1-3.5-3.6c0.9-7,0.4-14.1,0.6-21.1
	c0-1.4-0.1-2.8,1.5-3.5C51.1,8,51.7,8.5,51.8,9.5z"/>
<path class="st3" d="M33.7,11.8c-1.3-0.1-2.3-0.8-2.4-2c-0.1-1.5,1-2.2,2.4-2.2C35,7.6,36,8.3,36,9.5C36,10.8,35,11.6,33.7,11.8z"/>
<path class="st3" d="M42.7,9.3c0,1.8-0.7,2.6-2.2,2.5c-1.1-0.1-2-0.5-1.9-1.7c0.1-1.3,0.9-2.3,2.2-2.5C42.2,7.4,42.6,8.4,42.7,9.3z"
	/>
<path class="st3" d="M28.7,9.7c-0.4,1.2-1.1,2-2.4,2c-1.6,0-1.7-1.1-1.7-2.3c0.1-1.1,0.6-2,1.8-1.8C27.8,7.7,28.5,8.4,28.7,9.7z"/>
</svg>
